<svg width="30" height="26" viewBox="0 0 30 26" fill="none" xmlns="http://www.w3.org/2000/svg">
<path d="M26.0501 3.76249C25.4117 3.12375 24.6537 2.61705 23.8193 2.27135C22.985 1.92565 22.0908 1.74771 21.1876 1.74771C20.2845 1.74771 19.3903 1.92565 18.556 2.27135C17.7216 2.61705 16.9636 3.12375 16.3251 3.76249L15.0001 5.08749L13.6751 3.76249C12.3855 2.47288 10.6364 1.74838 8.81265 1.74838C6.98886 1.74838 5.23976 2.47288 3.95015 3.76249C2.66053 5.05211 1.93604 6.8012 1.93604 8.62499C1.93604 10.4488 2.66053 12.1979 3.95015 13.4875L5.27515 14.8125L15.0001 24.5375L24.7251 14.8125L26.0501 13.4875C26.6889 12.849 27.1956 12.091 27.5413 11.2567C27.887 10.4224 28.0649 9.5281 28.0649 8.62499C28.0649 7.72188 27.887 6.82762 27.5413 5.9933C27.1956 5.15898 26.6889 4.40094 26.0501 3.76249V3.76249Z" stroke="black" stroke-width="2" stroke-linecap="round" stroke-linejoin="round"/>
</svg>
