<svg width="402" height="146" viewBox="0 0 402 146" fill="none" xmlns="http://www.w3.org/2000/svg">
<path d="M22.114 78.2015C21.5656 79.6869 20.5765 83.9063 20.5041 84.4508C19.4092 84.1958 18.37 83.9163 17.3891 83.612C17.8403 81.9186 20.05 79.9676 22.114 78.2015ZM42.5462 17.5364C37.5454 18.4716 33.4877 20.4095 30.2121 22.7935C27.5489 25.7997 25.4469 29.6675 23.9736 34.2342C21.8163 40.9225 23.6982 47.0116 22.0436 51.2568C21.252 57.3474 11.4777 59.6371 9.49231 62.5714C13.8587 62.4093 26.6173 63.6005 27.58 68.7565C29.9198 65.9399 32.7886 63.4246 36.1509 61.2314C22.4194 50.8309 40.1834 20.0504 54.6082 17.1742C50.7855 16.6315 46.762 16.7479 42.5462 17.5364ZM119.523 74.6837C116.738 76.4737 115.836 79.6707 115.549 81.7344C118.521 81.9343 121.475 82.3825 124.308 83.305C123.446 80.9875 121.778 80.444 121.936 79.982C123.397 79.4436 127.142 82.4551 127.438 84.4737C127.921 84.6769 128.905 84.9067 128.907 84.852C128.986 81.1224 126.432 79.8273 126.498 79.3599C129.193 79.1411 130.882 82.469 131.131 84.7809C131.351 84.6032 131.534 84.3779 131.705 84.1023C132.597 82.6591 132.252 76.3527 121.222 74.8818C120.653 74.8063 120.087 74.7418 119.523 74.6837ZM95.2352 57.6224C96.0571 54.5626 99.0817 52.5978 102.383 52.2063C104.012 52.0132 109.664 55.5402 112.619 43.4098C113.041 41.6766 114.796 38.7442 118.328 40.5121C119.755 41.2261 119.713 43.181 119.652 44.6553C119.522 47.787 118.437 51.3415 119.403 54.4006C119.842 55.7911 125.214 59.4828 125.991 61.1556C127.131 63.6093 126.81 66.1726 125.55 68.2405C121.332 68.8746 117.69 68.709 115.922 68.577C114.661 68.4827 114.068 69.4713 114.135 70.4553C112.849 70.4555 107.225 71.1146 105.735 71.4914C105.735 71.4914 103.755 70.231 102.884 69.3318C104.181 69.9449 110.334 67.7805 107.999 67.2031C102.477 65.8369 98.3107 62.1779 95.2352 57.6224ZM104.532 60.0502C105.934 61.5604 108.436 61.5602 110.338 61.087C112.486 63.6876 118.939 64.4415 119.41 60.0042C119.501 59.1522 118.124 61.4322 116.623 61.5391C114.916 61.6606 112.38 60.9784 111.413 59.5131C111.4 59.4797 114.422 59.2388 114.668 58.3814C114.973 57.3199 113.842 56.0647 112.143 55.5779C110.445 55.0912 108.821 55.5571 108.517 56.6187C108.288 57.4162 109.828 58.5974 110.608 59.1358C109.223 59.548 107.189 59.8973 106.035 58.8576C104.528 57.4997 105.002 55.2415 104.555 55.9737C103.883 57.0766 103.628 59.0762 104.532 60.0502ZM89.4926 102.348C88.0889 87.7472 79.641 84.784 79.2719 84.6622C76.9531 85.6007 74.466 86.1612 72.0478 85.8021C71.9248 85.7841 71.8049 85.7636 71.6841 85.7433C75.4446 88.1887 81.8681 93.9929 81.2042 104.84C80.3514 118.773 72.7416 119.97 75.0062 130.054C76.3153 126.142 79.0854 122.968 81.7962 119.872C86.1431 114.904 90.2485 110.214 89.4926 102.348ZM129.878 89.0438C127.284 103.738 93.57 119.522 82.6946 124.258C80.8212 126.338 79.3407 128.22 78.9596 130.143C82.7583 127.079 88.748 123.948 95.8809 120.22C111.734 111.933 131.065 101.828 132.402 88.3118C131.634 88.6924 130.756 88.9842 129.878 89.0438ZM10.7547 66.2517C8.87613 66.2517 7.35278 67.1656 7.35278 68.2929C7.35278 69.4202 8.87613 70.334 10.7547 70.334C12.6335 70.334 14.1566 69.4202 14.1566 68.2929C14.1566 67.1656 12.6335 66.2517 10.7547 66.2517Z" fill="#F7EEDD"/>
<path d="M81.2041 104.839C80.3514 118.772 72.7415 119.97 75.0062 130.053C74.9386 130.255 74.8718 130.457 74.8123 130.663C72.3239 128.341 68.623 126.006 64.138 123.431C64.2672 113.049 72.6344 107.791 73.5219 106.298C74.495 104.66 61.5274 109.017 59.3542 120.739C58.9158 120.495 58.4724 120.249 58.0242 120C55.2898 118.482 52.4448 116.901 49.6164 115.249C50.2454 104.363 58.9974 98.9093 59.9434 97.2965C60.9836 95.5222 47.3777 99.8719 44.398 112.085C40.975 109.919 37.701 107.631 34.8174 105.202C37.8939 91.2791 50.3833 87.7611 51.9691 86.1247C53.7149 84.3232 36.3592 85.8494 30.3773 100.978C27.4538 97.7753 25.3374 94.3397 24.4862 90.6342C31.4329 76.3692 45.2266 77.0996 47.3011 75.914C49.2863 74.7798 35.7582 71.1351 25.4918 79.813C26.9206 75.7499 29.206 72.1466 32.3321 69.0162C44.3983 62.1517 55.4093 69.3208 57.4769 69.4769C59.2684 69.6123 52.9215 62.0911 43.0976 61.5828C44.4861 60.9139 45.9453 60.287 47.4804 59.7047C49.923 58.7785 52.331 58.0557 54.5766 57.4904C60.1615 58.6213 62.5604 62.8128 63.8084 65.8364C63.1792 67.7871 62.5994 69.6154 62.3611 71.066C61.7994 74.4878 60.8033 83.9192 71.6833 85.7435C75.4441 88.1887 81.8681 93.9927 81.2041 104.839ZM17.5563 41.3042C17.7689 41.4745 22.3318 45.4957 22.0917 50.7502C22.0839 50.9226 22.0652 51.0903 22.0436 51.257C23.6977 47.0118 21.8158 40.9228 23.9736 34.2345C25.4468 29.6675 27.5489 25.7999 30.2121 22.7938C20.3032 30.0055 17.5563 41.3042 17.5563 41.3042ZM141.525 46.9474C141.525 46.9474 144.82 56.3344 142.869 58.8977C138.238 64.9839 131.349 67.3693 125.55 68.2407C126.81 66.1729 127.131 63.6095 125.991 61.1559C125.214 59.4828 119.842 55.7911 119.403 54.4008C118.437 51.3418 119.522 47.787 119.652 44.6555C119.713 43.181 119.754 41.2264 118.328 40.5123C114.796 38.7445 113.041 41.6769 112.619 43.4101C109.664 55.5407 104.012 52.0134 102.383 52.2066C99.0812 52.5983 96.0571 54.5631 95.2351 57.6227C92.9587 54.2503 91.2792 50.3873 90.0949 46.5952C91.845 44.9257 93.4383 41.9913 94.5283 38.6977C95.8603 34.6745 98.6592 32.0305 98.6592 32.0305C97.0505 26.0562 97.7261 9.48039 102.49 17.4134C104.986 21.5696 109.751 25.034 111.163 26.0046C109.437 30.016 109.752 35.1856 111.358 34.0837C112.789 33.1015 113.953 28.9031 115.176 26.3984C116.324 26.5024 117.696 26.6824 119.222 26.9891C117.339 31.0452 117.747 36.1842 119.547 35.0572C120.996 34.1492 122.177 30.6253 123.392 28.0761C124.831 28.5402 126.331 29.1212 127.853 29.8494C124.794 33.3923 124.028 39.1362 126.136 38.3351C127.836 37.6886 129.789 34.1261 131.544 31.9049C131.816 32.0793 132.087 32.2568 132.357 32.442C136.321 35.1589 151.692 17.1008 147.809 33.1288C145.307 43.4522 141.525 46.9474 141.525 46.9474ZM102.355 31.2795C103.352 31.2348 100.799 30.6055 101.854 28.9083C102.001 28.6709 100.46 27.3844 100.265 27.2251C100.712 27.2097 102.095 27.5339 102.544 27.5264C103.172 27.5159 103.463 26.8833 103.216 26.3562C102.006 23.7739 100.216 17.485 100.126 18.4752C99.88 21.1615 100.131 26.0395 99.5155 26.2014C99.0172 26.3326 98.8151 26.909 99.0509 27.3436C99.2944 27.793 100.353 28.6211 100.695 28.9465C100.368 29.2661 99.4477 29.256 99.6442 29.8296C100.017 30.9145 101.323 31.3257 102.355 31.2795ZM109.602 48.189C106.295 43.0921 101.983 43.8493 100.955 44.5569C98.99 45.911 104.86 46.2259 106.243 49.164C107.486 51.8079 110.905 50.1967 109.602 48.189ZM130.841 51.9582C129.103 49.1642 123.401 49.5788 120.401 51.987C118.53 53.4887 121.27 55.7539 123.04 54.1211C126.771 50.6806 132.109 53.9968 130.841 51.9582ZM143.411 39.0036C143.273 38.7922 142.591 38.2708 142.432 38.1011C142.873 37.6439 143.446 36.7344 143.1 36.2042C142.502 35.2878 143.776 32.2783 145.485 31.2278C145.455 31.3963 146.012 33.5164 146.338 32.575C146.595 31.8345 146.632 31.0999 146.542 30.3219C146.472 29.7202 145.831 29.2173 145.372 29.6506C141.917 32.912 139.16 33.8197 136.983 35.5305C136.748 35.7152 140.871 37.0056 140.909 37.0336C140.711 37.038 139.02 38.3787 139.887 38.5046C139.967 38.5161 140.05 38.5277 140.133 38.539C140.457 38.5821 140.736 38.6934 140.977 38.8631C140.597 38.9368 138.79 40.3189 139.782 40.4034C140.899 40.4982 143.6 39.2921 143.411 39.0036ZM101.301 72.9102C100.094 71.9825 99.1495 70.7504 98.1796 69.4785C96.7413 67.593 95.1455 65.5022 92.2655 63.4706C92.283 69.5103 88.8368 76.5027 88.4852 77.048C89.2904 78.7021 95.8084 85.3729 98.2962 85.2697C100.785 85.1659 106.383 81.3296 114.111 81.6548C114.59 81.6748 115.069 81.7023 115.549 81.7347C115.836 79.6709 116.738 76.474 119.523 74.684C112.491 73.9592 105.818 74.646 99.4056 77.7944C97.2547 78.8498 97.7261 75.2645 101.301 72.9102ZM87.0022 71.6344C84.96 77.3467 79.1509 83.3513 72.9624 82.1277C63.6826 80.2925 65.761 72.3695 66.5462 69.3547C67.6087 65.2742 69.5903 61.3806 69.7192 57.1306C70.0074 47.6344 61.0196 46.0597 62.6598 47.8135C63.8565 49.0931 64.7136 50.4482 65.2622 51.8811C62.1564 52.1449 54.4785 53.0745 46.2524 56.1782C42.5033 57.5932 39.1339 59.286 36.1517 61.2314C22.4202 50.8309 40.1842 20.0504 54.6089 17.1742C62.7489 18.3295 69.9745 22.4856 76.181 29.5912C77.1282 30.6759 84.7301 38.3032 87.6934 53.4243C88.8612 59.3862 89.0693 65.8526 87.0022 71.6344ZM48.1916 52.3281C45.7729 49.5883 42.3877 47.9591 38.8565 49.5965C37.1706 50.3783 35.6973 51.7735 34.6854 53.3277C33.3711 55.3465 36.6012 57.2192 37.9083 55.2114C38.2175 54.7362 39.3713 53.5871 39.9898 53.2126C42.1871 51.8811 44.0389 53.2519 45.5528 54.9669C47.145 56.7715 49.7764 54.1234 48.1916 52.3281ZM16.045 51.0418C15.9386 52.1806 15.8439 53.1965 15.7324 54.0993C17.1209 53.0398 18.1999 51.7594 18.39 50.2766C18.616 48.5103 17.5771 46.8069 16.6295 45.6585C16.3694 47.572 16.1988 49.3915 16.045 51.0418ZM127.73 88.6079C119.033 83.818 107.5 86.2858 104.443 87.4377C102.57 88.1435 100.561 89.1963 98.504 89.1052C93.2163 88.8709 92.1502 90.0925 93.2079 101.99C94.1805 112.927 87.2657 119.183 82.6946 124.258C93.57 119.522 127.284 103.737 129.878 89.043C129.14 89.0931 128.403 88.979 127.73 88.6079ZM65.9916 55.5697C65.1759 55.6339 63.8146 55.7644 62.0742 56.0141C63.6849 57.4108 64.6902 59.1871 65.2827 60.9781C65.7969 59.0117 66.1283 57.1265 65.9916 55.5697Z" fill="#EFA132"/>
<path d="M34.6854 53.3277C35.6971 51.7733 37.1706 50.3783 38.8566 49.5965C42.3877 47.9591 45.7732 49.588 48.1917 52.3281C49.7767 54.1237 47.145 56.7715 45.5528 54.9672C44.0387 53.2522 42.1871 51.8814 39.9898 53.2129C39.3715 53.5874 38.2178 54.7365 37.9083 55.2117C36.6012 57.2192 33.3708 55.3465 34.6854 53.3277ZM106.243 49.164C107.487 51.8077 110.904 50.1968 109.602 48.189C106.294 43.0921 101.982 43.8493 100.955 44.5569C98.9895 45.911 104.86 46.2259 106.243 49.164ZM120.401 51.9867C118.53 53.4885 121.27 55.7536 123.04 54.1209C126.771 50.6804 132.109 53.9968 130.841 51.9579C129.104 49.164 123.401 49.5788 120.401 51.9867ZM116.624 61.5388C114.917 61.6603 112.38 60.9781 111.413 59.5128C111.401 59.4794 114.422 59.2385 114.668 58.3812C114.973 57.3196 113.842 56.0644 112.144 55.5777C110.445 55.091 108.821 55.5569 108.517 56.6184C108.289 57.4159 109.828 58.5972 110.609 59.1355C109.224 59.5478 107.189 59.8971 106.035 58.8574C104.528 57.4994 105.002 55.2412 104.555 55.9735C103.884 57.0764 103.629 59.0759 104.532 60.0499C105.934 61.5602 108.436 61.5599 110.338 61.0868C112.486 63.6874 118.939 64.4412 119.41 60.0039C119.501 59.1522 118.124 61.4322 116.624 61.5388ZM145.372 29.6506C141.918 32.912 139.16 33.8197 136.983 35.5305C136.748 35.7152 140.871 37.0056 140.909 37.0336C140.711 37.038 139.02 38.3787 139.887 38.5046C139.967 38.5161 140.05 38.5277 140.134 38.539C140.457 38.5821 140.737 38.6934 140.978 38.8631C140.598 38.9368 138.79 40.3189 139.782 40.4034C140.899 40.4985 143.599 39.2923 143.411 39.0039C143.273 38.7925 142.591 38.2711 142.432 38.1013C142.873 37.6441 143.446 36.7346 143.1 36.2045C142.502 35.2881 143.776 32.2786 145.485 31.2281C145.454 31.3966 146.012 33.5166 146.338 32.5753C146.594 31.8348 146.632 31.1002 146.542 30.3222C146.473 29.7202 145.831 29.2173 145.372 29.6506ZM102.355 31.2795C103.352 31.2348 100.799 30.6055 101.854 28.9083C102.001 28.6709 100.46 27.3844 100.265 27.2252C100.712 27.2097 102.095 27.5339 102.545 27.5264C103.172 27.5159 103.463 26.8833 103.216 26.3562C102.006 23.7739 100.216 17.485 100.126 18.4752C99.88 21.1615 100.131 26.0396 99.5155 26.2014C99.0172 26.3326 98.8151 26.909 99.0509 27.3436C99.2944 27.793 100.353 28.6211 100.695 28.9465C100.369 29.2661 99.4477 29.256 99.6442 29.8296C100.017 30.9145 101.323 31.3257 102.355 31.2795ZM151.357 56.594C149.976 56.4548 149.027 56.5288 148.186 56.6392C148.164 57.7591 148.024 58.7035 147.765 59.4887C149.128 59.7848 150.644 60.5058 151.345 61.1194C153.142 62.6728 148.951 61.7792 146.428 61.5992C145.63 62.4332 144.765 63.2985 143.849 64.1587C144.388 64.6531 144.839 65.1668 145.012 65.4064C145.877 66.5533 147.03 70.8534 145.011 68.0807C144.021 66.721 142.803 66.104 142.068 65.7588C139.558 67.9161 136.804 69.8491 134.148 70.8349C134.395 72.1674 134.617 74.065 134.437 76.0787C135.155 76.8428 135.761 77.7145 136.204 78.7072C136.861 80.1818 137.115 81.849 136.887 83.4399C138.465 91.8354 134.735 99.7106 125.492 107.499C117.692 114.071 107.336 119.795 97.9657 124.381C81.8075 132.289 78.263 138.168 78.263 138.168C77.3849 139.565 75.3347 139.522 74.5161 138.089C74.5161 138.089 72.4221 132.5 55.8611 124.112C47.0274 119.638 37.3933 113.856 30.14 107.323C23.3173 101.177 19.7654 94.9726 19.3927 88.4926C4.74065 85.2751 0.943946 78.4956 0.370151 73.3165C-0.195939 68.2063 2.25618 63.15 5.67583 59.6623C4.2529 42.9431 9.22597 33.2128 13.7611 27.9461C17.4859 23.6206 21.4799 21.5381 23.5495 20.6753C28.1586 16.7995 34.082 14.1761 41.2689 12.8451C55.9369 10.1292 69.0227 14.8292 79.1116 26.4369C84.199 32.2899 87.2904 38.4501 88.7981 41.9427C89.5193 41.2731 90.0595 40.5267 90.4956 39.7305C90.1347 39.4277 86.5946 37.4104 88.1675 36.8158C88.9486 36.5204 90.3389 36.9851 91.4405 37.564C92.3349 35.0569 92.8827 32.3028 94.8761 29.9007C93.2932 22.3358 95.8693 9.0173 99.1351 8.10523C102.557 7.14925 109.63 20.8805 112.603 21.6768C115.065 21.7271 126.812 22.2413 133.995 27.4319C137.786 27.3659 145.426 22.84 147.589 20.8931C148.762 19.8364 150.332 19.849 151.406 20.9232C154.509 24.0264 153.884 38.7768 146.837 47.4534C147.107 48.5139 148.041 53.779 148.102 54.4771C148.977 54.6127 149.865 54.8344 150.213 54.9281C151.489 55.2715 153.489 56.8093 151.357 56.594ZM101.301 72.9102C100.094 71.9825 99.1495 70.7504 98.1797 69.4785C96.7413 67.593 95.1455 65.5022 92.2655 63.4706C92.283 69.5103 88.8369 76.5027 88.4852 77.048C89.2905 78.7021 95.8085 85.3729 98.2963 85.2697C100.785 85.1659 106.383 81.3296 114.111 81.6548C114.59 81.6748 115.069 81.7023 115.549 81.7347C118.521 81.9345 121.475 82.3827 124.308 83.3053C123.446 80.9878 121.778 80.4443 121.936 79.9822C123.397 79.4439 127.142 82.4554 127.438 84.474C127.921 84.6771 128.905 84.907 128.907 84.8523C128.986 81.1226 126.432 79.8276 126.498 79.3601C129.193 79.1413 130.882 82.4693 131.131 84.7811C131.351 84.6034 131.534 84.3781 131.705 84.1026C132.597 82.6593 132.252 76.353 121.222 74.882C120.653 74.8062 120.087 74.7418 119.523 74.6837C112.491 73.9589 105.818 74.6457 99.4056 77.7941C97.2548 78.8498 97.7261 75.2645 101.301 72.9102ZM15.7324 54.0993C17.1209 53.0398 18.1999 51.7594 18.39 50.2766C18.616 48.5103 17.5771 46.8069 16.6296 45.6585C16.3694 47.572 16.1991 49.3915 16.045 51.0418C15.9387 52.1804 15.8436 53.1965 15.7324 54.0993ZM9.49257 62.5714C13.859 62.4093 26.6176 63.6005 27.5802 68.7565C29.9201 65.9399 32.7888 63.4246 36.1512 61.2314C39.1334 59.286 42.5028 57.5932 46.2519 56.1782C54.4777 53.0742 62.1556 52.1447 65.2617 51.8814C64.7131 50.4485 63.856 49.0933 62.6593 47.8137C61.0191 46.06 70.0069 47.6347 69.7187 57.1308C69.5898 61.3809 67.6085 65.2747 66.5457 69.3549C65.7607 72.3698 63.6826 80.2933 72.9619 82.1279C79.1502 83.3515 84.9593 77.347 87.0017 71.6347C89.0691 65.8528 88.8605 59.3865 87.6921 53.4243C84.7291 38.3032 77.127 30.6759 76.1797 29.5912C69.9735 22.4853 62.7477 18.3295 54.6079 17.1742C50.7853 16.6315 46.7615 16.7481 42.5457 17.5364C37.5448 18.4716 33.4872 20.4095 30.2116 22.7935C20.3027 30.0055 17.5558 41.3042 17.5558 41.3042C17.7682 41.4745 22.3313 45.4957 22.0912 50.7503C22.0835 50.9226 22.0647 51.0903 22.0431 51.257C21.2523 57.3476 11.478 59.6374 9.49257 62.5714ZM65.9916 55.5697C65.1759 55.6339 63.8146 55.7644 62.0742 56.0141C63.6849 57.4108 64.6902 59.1872 65.2827 60.9781C65.797 59.0117 66.1283 57.1265 65.9916 55.5697ZM14.1567 68.2926C14.1567 67.1653 12.6336 66.2515 10.7547 66.2515C8.87614 66.2515 7.35278 67.1653 7.35278 68.2926C7.35278 69.4199 8.87614 70.3338 10.7547 70.3338C12.6336 70.3338 14.1567 69.4199 14.1567 68.2926ZM22.114 78.2015C20.05 79.9676 17.8401 81.9186 17.3891 83.612C18.37 83.9163 19.4092 84.1953 20.5041 84.4508C20.5765 83.9063 21.5656 79.6869 22.114 78.2015ZM81.7962 119.871C86.1431 114.904 90.2485 110.213 89.4926 102.347C88.0889 87.7467 79.641 84.7835 79.2719 84.6617C76.9531 85.6005 74.466 86.1607 72.0478 85.8016C71.9248 85.7834 71.8049 85.7628 71.6841 85.7428C60.8039 83.9181 61.8004 74.4873 62.3619 71.065C62.6002 69.6146 63.1799 67.7859 63.8092 65.8354C62.5612 62.8118 60.1622 58.6203 54.5774 57.4894C52.3318 58.0547 49.9238 58.7775 47.4812 59.7037C45.9458 60.2859 44.4869 60.9129 43.0984 61.5817C52.9223 62.09 59.2692 69.6113 57.4777 69.4759C55.4098 69.3198 44.3985 62.1506 32.3329 69.0151C29.2068 72.1456 26.9217 75.7489 25.4926 79.8122C35.7593 71.1341 49.2871 74.7785 47.3019 75.9127C45.2274 77.0981 31.4337 76.3676 24.487 90.6331C25.338 94.3392 27.4546 97.7748 30.3781 100.977C36.36 85.8481 53.7157 84.3222 51.9699 86.1239C50.3841 87.7598 37.8944 91.2781 34.8182 105.201C37.7018 107.63 40.9758 109.918 44.3988 112.084C47.379 99.8709 60.9847 95.5214 59.9442 97.2952C58.9985 98.9082 50.2464 104.362 49.6172 115.248C52.4461 116.9 55.2912 118.481 58.025 119.999C58.4732 120.248 58.9165 120.494 59.355 120.738C61.5282 109.016 74.4958 104.659 73.5226 106.297C72.6352 107.79 64.2679 113.048 64.1387 123.43C68.6238 126.005 72.3242 128.34 74.813 130.662C74.8724 130.456 74.9394 130.254 75.007 130.052C76.3156 126.141 79.0854 122.968 81.7962 119.871ZM132.402 88.312C131.634 88.6919 130.756 88.9842 129.878 89.0438C129.14 89.0931 128.403 88.979 127.73 88.6087C119.033 83.8185 107.5 86.2865 104.443 87.4382C102.57 88.144 100.561 89.1971 98.5041 89.1057C93.2164 88.8714 92.1502 90.093 93.2079 101.99C94.1806 112.927 87.2657 119.184 82.6946 124.258C80.8212 126.338 79.3407 128.22 78.9596 130.143C82.7583 127.079 88.748 123.948 95.8809 120.219C111.734 111.934 131.065 101.827 132.402 88.312ZM147.808 33.1288C151.691 17.1008 136.32 35.1589 132.357 32.442C132.086 32.2565 131.815 32.0793 131.544 31.9049C129.788 34.1261 127.835 37.6888 126.135 38.3351C124.028 39.1362 124.793 33.3926 127.853 29.8494C126.331 29.1215 124.83 28.5402 123.391 28.0761C122.177 30.6253 120.996 34.1492 119.546 35.0572C117.747 36.1842 117.339 31.0452 119.221 26.9891C117.695 26.6824 116.323 26.5021 115.175 26.3984C113.952 28.9031 112.788 33.1018 111.357 34.0837C109.751 35.1856 109.437 30.0163 111.163 26.0046C109.751 25.034 104.985 21.5694 102.489 17.4134C97.7256 9.48039 97.0501 26.0562 98.6587 32.0305C98.6587 32.0305 95.8598 34.6742 94.5278 38.6977C93.4378 41.9913 91.8448 44.9257 90.0944 46.5952C91.2782 50.3871 92.9575 54.25 95.2347 57.6227C98.3101 62.1779 102.476 65.8369 107.999 67.2036C110.333 67.7812 104.181 69.9454 102.883 69.3323C103.755 70.2316 105.735 71.4919 105.735 71.4919C107.224 71.1151 112.848 70.456 114.134 70.4558C114.067 69.4715 114.661 68.4832 115.921 68.5775C117.69 68.7095 121.331 68.8752 125.55 68.241C131.348 67.3693 138.237 64.9839 142.869 58.8979C144.82 56.3346 141.525 46.9476 141.525 46.9476C141.525 46.9476 145.307 43.4522 147.808 33.1288Z" fill="#301410"/>
<path d="M179.969 40.0781C179.969 37.7344 180.555 35.9531 181.727 34.7344C183.695 32.6719 185.594 31.6406 187.422 31.6406C189.25 31.6406 190.609 31.8516 191.5 32.2734C192.391 32.6484 193.141 33.0938 193.75 33.6094C194.5 34.2188 195.062 34.9453 195.438 35.7891C195.812 36.6328 196.141 37.2422 196.422 37.6172C196.75 37.9922 197.195 38.1797 197.758 38.1797C198.32 38.1797 198.789 37.9922 199.164 37.6172C199.539 37.1953 200.148 36.5625 200.992 35.7188C203.805 33 206.875 31.6406 210.203 31.6406C213.578 31.6406 216.367 32.2031 218.57 33.3281C220.82 34.4062 222.789 35.9063 224.477 37.8281C228.133 41.9062 229.961 46.7812 229.961 52.4531V87.1875C229.961 92.9531 227.922 97.8516 223.844 101.883C219.672 105.961 214.75 108 209.078 108H196.633V133.031C196.633 135.375 196.047 137.133 194.875 138.305C192.859 140.32 190.656 141.328 188.266 141.328C185.922 141.328 184.164 140.742 182.992 139.57C180.977 137.555 179.969 135.375 179.969 133.031V40.0781ZM213.227 51.8203C213.227 49.5234 212.43 47.6953 210.836 46.3359C209.289 44.9766 207.625 44.2969 205.844 44.2969C204.109 44.2969 202.727 44.4844 201.695 44.8594C200.711 45.1875 199.844 45.6562 199.094 46.2656C197.453 47.6719 196.633 49.4062 196.633 51.4688V95.2734H204.93C207.227 95.2734 208.984 94.6875 210.203 93.5156C212.219 91.5938 213.227 89.4375 213.227 87.0469V51.8203ZM289.375 95.2734C291.156 95.2734 292.656 95.9062 293.875 97.1719C295.094 98.4375 295.703 99.9609 295.703 101.742C295.703 103.477 295.094 104.953 293.875 106.172C292.656 107.391 291.156 108 289.375 108H272.781C267.062 108 262.164 105.961 258.086 101.883C254.008 97.8047 251.969 92.9062 251.969 87.1875V52.6641C251.969 46.2891 254.125 41.2031 258.438 37.4062C262.938 33.5625 269.125 31.6406 277 31.6406C284.781 31.6406 290.922 33.5625 295.422 37.4062C299.781 41.25 301.961 46.3828 301.961 52.8047V72.4922C301.961 74.8359 301.375 76.5938 300.203 77.7656C298.188 79.7812 295.984 80.7891 293.594 80.7891H268.633V87.0469C268.633 89.4375 269.219 91.1953 270.391 92.3203C272.453 94.2891 274.633 95.2734 276.93 95.2734H289.375ZM285.297 52.6641C285.297 50.3203 284.711 48.5625 283.539 47.3906C281.477 45.3281 279.297 44.2969 277 44.2969C274.656 44.2969 272.875 44.9062 271.656 46.125C269.641 48.1406 268.633 50.3203 268.633 52.6641V68.4844H285.297V52.6641ZM360.18 95.2734C361.961 95.2734 363.438 95.9062 364.609 97.1719C365.781 98.4375 366.367 99.9609 366.367 101.742C366.367 103.477 365.781 104.953 364.609 106.172C363.438 107.391 361.961 108 360.18 108H351.742C346.023 108 341.125 105.961 337.047 101.883C333.016 97.8516 331 92.9531 331 87.1875V45.4219H322.703C320.031 45.4219 318.133 44.1562 317.008 41.625C316.68 40.875 316.516 40.0781 316.516 39.2344C316.516 36.5625 317.781 34.6641 320.312 33.5391C321.062 33.2109 321.859 33.0469 322.703 33.0469H331V18.4219C331 14.7187 332.688 12.1406 336.062 10.6875C337.047 10.2187 338.125 9.98438 339.297 9.98438C341.594 9.98438 343.328 10.5938 344.5 11.8125C346.562 13.8281 347.594 16.0312 347.594 18.4219V33.0469H360.32C361.961 33.0469 363.227 33.4922 364.117 34.3828C365.617 35.8828 366.367 37.5 366.367 39.2344C366.367 40.9219 365.781 42.375 364.609 43.5938C363.438 44.8125 362.008 45.4219 360.32 45.4219H347.594V87.0469C347.594 89.3906 348.203 91.125 349.422 92.25C351.484 94.2656 353.641 95.2734 355.891 95.2734H360.18Z" fill="#6A63DD"/>
</svg>
