<svg width="444" height="132" viewBox="0 0 444 132" fill="none" xmlns="http://www.w3.org/2000/svg">
<path d="M21.8253 70.3615C21.2769 71.8469 20.2878 76.0664 20.2153 76.6109C19.1204 76.3558 18.0812 76.0764 17.1003 75.772C17.5516 74.0786 19.7612 72.1276 21.8253 70.3615ZM42.2574 9.69643C37.2566 10.6316 33.1989 12.5695 29.9234 14.9536C27.2601 17.9597 25.1581 21.8275 23.6848 26.3943C21.5276 33.0826 23.4095 39.1716 21.7549 43.4168C20.9633 49.5074 11.189 51.7972 9.20356 54.7314C13.57 54.5693 26.3286 55.7606 27.2912 60.9165C29.6311 58.0999 32.4998 55.5846 35.8622 53.3914C22.1307 42.9909 39.8947 12.2104 54.3194 9.33427C50.4968 8.79155 46.4733 8.90791 42.2574 9.69643ZM119.234 66.8438C116.449 68.6337 115.548 71.8307 115.26 73.8945C118.233 74.0943 121.186 74.5425 124.019 75.4651C123.158 73.1476 121.489 72.6041 121.647 72.142C123.108 71.6037 126.853 74.6152 127.149 76.6337C127.633 76.8369 128.616 77.0668 128.618 77.0121C128.697 73.2824 126.143 71.9874 126.209 71.5199C128.904 71.3011 130.593 74.6291 130.842 76.9409C131.062 76.7632 131.246 76.5379 131.416 76.2623C132.308 74.8191 131.963 68.5128 120.933 67.0418C120.364 66.9663 119.798 66.9018 119.234 66.8438ZM94.9464 49.7825C95.7683 46.7227 98.793 44.7578 102.094 44.3664C103.723 44.1732 109.376 47.7002 112.33 35.5699C112.753 33.8367 114.508 30.9042 118.039 32.6721C119.466 33.3862 119.425 35.341 119.363 36.8153C119.233 39.947 118.148 43.5016 119.114 46.5606C119.553 47.9512 124.925 51.6428 125.702 53.3157C126.842 55.7693 126.522 58.3326 125.261 60.4005C121.043 61.0347 117.401 60.869 115.633 60.737C114.373 60.6427 113.779 61.6313 113.846 62.6153C112.56 62.6156 106.936 63.2746 105.446 63.6514C105.446 63.6514 103.466 62.3911 102.595 61.4919C103.893 62.105 110.045 59.9405 107.711 59.3631C102.188 57.9969 98.0219 54.3379 94.9464 49.7825ZM104.243 52.2102C105.645 53.7205 108.147 53.7202 110.049 53.2471C112.197 55.8477 118.65 56.6015 119.122 52.1642C119.213 51.3123 117.835 53.5923 116.335 53.6991C114.628 53.8206 112.091 53.1384 111.124 51.6731C111.112 51.6397 114.133 51.3988 114.379 50.5415C114.684 49.4799 113.553 48.2247 111.855 47.738C110.156 47.2513 108.532 47.7172 108.228 48.7787C108 49.5762 109.539 50.7575 110.32 51.2958C108.935 51.7081 106.9 52.0574 105.746 51.0177C104.239 49.6597 104.713 47.4015 104.266 48.1338C103.595 49.2367 103.34 51.2362 104.243 52.2102ZM89.2038 94.5077C87.8002 79.9072 79.3522 76.944 78.9831 76.8223C76.6643 77.7608 74.1773 78.3212 71.7591 77.9621C71.6361 77.9442 71.5161 77.9236 71.3954 77.9033C75.1559 80.3488 81.5794 86.153 80.9154 96.9999C80.0627 110.933 72.4528 112.13 74.7174 122.214C76.0266 118.302 78.7967 115.128 81.5074 112.032C85.8543 107.064 89.9597 102.374 89.2038 94.5077ZM129.589 81.2038C126.995 95.898 93.2813 111.682 82.4059 116.419C80.5324 118.498 79.052 120.38 78.6708 122.303C82.4696 119.239 88.4593 116.108 95.5921 112.38C111.446 104.093 130.776 93.9876 132.113 80.4718C131.346 80.8524 130.468 81.1442 129.589 81.2038ZM10.466 58.4118C8.58738 58.4118 7.06403 59.3256 7.06403 60.4529C7.06403 61.5802 8.58738 62.4941 10.466 62.4941C12.3448 62.4941 13.8679 61.5802 13.8679 60.4529C13.8679 59.3256 12.3448 58.4118 10.466 58.4118Z" fill="#F7EEDD"/>
<path d="M80.9154 97.5348C80.0627 111.468 72.4528 112.665 74.7174 122.749C74.6499 122.951 74.5831 123.153 74.5235 123.359C72.0352 121.036 68.3343 118.701 63.8492 116.127C63.9784 105.744 72.3457 100.486 73.2331 98.9932C74.2063 97.3553 61.2386 101.712 59.0654 113.434C58.627 113.191 58.1837 112.945 57.7355 112.695C55.0011 111.177 52.156 109.597 49.3276 107.945C49.9566 97.0581 58.7087 91.6047 59.6546 89.992C60.6949 88.2177 47.0889 92.5674 44.1093 104.781C40.6863 102.614 37.4122 100.327 34.5286 97.8977C37.6051 83.9746 50.0946 80.4566 51.6803 78.8202C53.4261 77.0187 36.0705 78.5449 30.0885 93.6736C27.1651 90.4708 25.0487 87.0352 24.1975 83.3297C31.1442 69.0647 44.9378 69.7951 47.0124 68.6095C48.9976 67.4753 35.4695 63.8306 25.203 72.5085C26.6319 68.4454 28.9173 64.8421 32.0434 61.7116C44.1095 54.8472 55.1205 62.0163 57.1881 62.1724C58.9797 62.3078 52.6327 54.7865 42.8088 54.2782C44.1974 53.6094 45.6565 52.9825 47.1917 52.4002C49.6343 51.474 52.0422 50.7512 54.2878 50.1859C59.8727 51.3168 62.2717 55.5083 63.5197 58.5319C62.8904 60.4826 62.3107 62.3109 62.0723 63.7615C61.5106 67.1833 60.5146 76.6147 71.3946 78.439C75.1553 80.8842 81.5793 86.6882 80.9154 97.5348ZM17.2675 33.9997C17.4802 34.17 22.0431 38.1912 21.8029 43.4457C21.7952 43.6181 21.7764 43.7858 21.7549 43.9525C23.409 39.7073 21.527 33.6183 23.6848 26.93C25.1581 22.363 27.2601 18.4954 29.9234 15.4893C20.0145 22.701 17.2675 33.9997 17.2675 33.9997ZM141.236 39.6429C141.236 39.6429 144.531 49.0298 142.581 51.5932C137.949 57.6794 131.06 60.0647 125.261 60.9362C126.522 58.8684 126.842 56.305 125.702 53.8514C124.925 52.1783 119.553 48.4866 119.114 47.0963C118.148 44.0373 119.233 40.4825 119.363 37.351C119.424 35.8765 119.465 33.9219 118.039 33.2078C114.508 31.44 112.753 34.3724 112.33 36.1056C109.376 48.2362 103.723 44.7089 102.094 44.9021C98.7924 45.2938 95.7683 47.2586 94.9464 50.3182C92.67 46.9458 90.9904 43.0828 89.8061 39.2907C91.5563 37.6212 93.1495 34.6868 94.2396 31.3932C95.5716 27.37 98.3704 24.726 98.3704 24.726C96.7618 18.7517 97.4373 2.17588 102.201 10.1088C104.697 14.2651 109.462 17.7295 110.874 18.7001C109.149 22.7115 109.463 27.8811 111.069 26.7792C112.5 25.797 113.664 21.5986 114.887 19.0939C116.035 19.1979 117.407 19.3779 118.933 19.6846C117.051 23.7407 117.458 28.8797 119.258 27.7527C120.708 26.8447 121.889 23.3208 123.103 20.7716C124.542 21.2357 126.042 21.8167 127.565 22.5448C124.505 26.0878 123.739 31.8316 125.847 31.0305C127.547 30.3841 129.5 26.8216 131.256 24.6004C131.527 24.7748 131.798 24.9523 132.068 25.1375C136.032 27.8544 151.403 9.79626 147.52 25.8243C145.018 36.1477 141.236 39.6429 141.236 39.6429ZM102.066 23.975C103.063 23.9303 100.51 23.301 101.565 21.6038C101.712 21.3664 100.171 20.0799 99.976 19.9206C100.423 19.9052 101.806 20.2294 102.256 20.2219C102.883 20.2114 103.174 19.5788 102.927 19.0517C101.717 16.4694 99.9269 10.1805 99.8368 11.1706C99.5912 13.857 99.8424 18.735 99.2268 18.8969C98.7285 19.0281 98.5263 19.6045 98.7621 20.039C99.0056 20.4885 100.064 21.3166 100.407 21.642C100.08 21.9615 99.1589 21.9515 99.3554 22.5251C99.7286 23.61 101.034 24.0212 102.066 23.975ZM109.313 40.8845C106.006 35.7876 101.694 36.5448 100.666 37.2524C98.7012 38.6065 104.571 38.9214 105.954 41.8595C107.198 44.5034 110.616 42.8922 109.313 40.8845ZM130.552 44.6537C128.815 41.8597 123.112 42.2743 120.112 44.6825C118.241 46.1842 120.981 48.4494 122.751 46.8166C126.482 43.3761 131.82 46.6923 130.552 44.6537ZM143.123 31.6991C142.985 31.4877 142.302 30.9663 142.143 30.7966C142.584 30.3394 143.157 29.4299 142.812 28.8997C142.214 27.9833 143.487 24.9738 145.196 23.9233C145.166 24.0918 145.723 26.2118 146.049 25.2705C146.306 24.53 146.343 23.7954 146.253 23.0174C146.183 22.4156 145.542 21.9127 145.083 22.346C141.629 25.6075 138.871 26.5152 136.694 28.226C136.459 28.4107 140.582 29.7011 140.62 29.7291C140.422 29.7335 138.731 31.0742 139.598 31.2001C139.678 31.2116 139.761 31.2232 139.844 31.2345C140.168 31.2776 140.448 31.3888 140.688 31.5586C140.309 31.6323 138.501 33.0144 139.493 33.0989C140.61 33.1937 143.311 31.9876 143.123 31.6991ZM101.013 65.6057C99.8057 64.678 98.8607 63.4459 97.8909 62.174C96.4526 60.2885 94.8568 58.1977 91.9767 56.1661C91.9942 62.2058 88.5481 69.1982 88.1965 69.7435C89.0017 71.3976 95.5197 78.0684 98.0075 77.9652C100.496 77.8614 106.094 74.0251 113.822 74.3503C114.302 74.3703 114.781 74.3978 115.26 74.4302C115.548 72.3664 116.449 69.1694 119.234 67.3795C112.203 66.6547 105.53 67.3415 99.1168 70.4899C96.966 71.5453 97.4373 67.96 101.013 65.6057ZM86.7134 64.3299C84.6713 70.0422 78.8621 76.0468 72.6737 74.8232C63.3938 72.988 65.4722 65.065 66.2574 62.0502C67.32 57.9697 69.3016 54.0761 69.4305 49.8261C69.7187 40.3299 60.7308 38.7552 62.3711 40.509C63.5677 41.7886 64.4248 43.1437 64.9734 44.5766C61.8676 44.8404 54.1897 45.7699 45.9637 48.8737C42.2145 50.2886 38.8452 51.9815 35.8629 53.9269C22.1314 43.5264 39.8954 12.7459 54.3202 9.86972C62.4602 11.025 69.6858 15.181 75.8922 22.2867C76.8395 23.3714 84.4414 30.9987 87.4046 46.1198C88.5725 52.0817 88.7805 58.5481 86.7134 64.3299ZM47.9029 45.0235C45.4842 42.2838 42.0989 40.6546 38.5678 42.292C36.8819 43.0738 35.4086 44.469 34.3966 46.0232C33.0823 48.042 36.3124 49.9147 37.6195 47.9069C37.9288 47.4317 39.0825 46.2826 39.701 45.9081C41.8983 44.5766 43.7502 45.9474 45.264 47.6624C46.8562 49.467 49.4876 46.8189 47.9029 45.0235ZM15.7562 43.7373C15.6499 44.8761 15.5551 45.8919 15.4436 46.7948C16.8321 45.7353 17.9112 44.4549 18.1012 42.9721C18.3273 41.2058 17.2883 39.5024 16.3408 38.354C16.0806 40.2675 15.9101 42.087 15.7562 43.7373ZM127.441 81.3034C118.744 76.5135 107.211 78.9812 104.154 80.1332C102.281 80.839 100.272 81.8918 98.2153 81.8007C92.9276 81.5664 91.8614 82.788 92.9191 94.6854C93.8918 105.622 86.977 111.879 82.4059 116.953C93.2813 112.217 126.995 96.4324 129.589 81.7385C128.851 81.7886 128.114 81.6745 127.441 81.3034ZM65.7029 48.2652C64.8871 48.3294 63.5258 48.4599 61.7854 48.7096C63.3961 50.1063 64.4014 51.8826 64.994 53.6736C65.5082 51.7072 65.8395 49.822 65.7029 48.2652Z" fill="#EFA132"/>
<path d="M34.3966 45.2701C35.4083 43.7157 36.8819 42.3208 38.5678 41.5389C42.0989 39.9015 45.4844 41.5305 47.9029 44.2705C49.4879 46.0661 46.8563 48.7139 45.2641 46.9096C43.75 45.1946 41.8984 43.8238 39.701 45.1553C39.0828 45.5298 37.929 46.6789 37.6195 47.1541C36.3125 49.1616 33.0821 47.289 34.3966 45.2701ZM105.954 41.1064C107.198 43.7501 110.616 42.1392 109.313 40.1314C106.006 35.0345 101.694 35.7917 100.666 36.4993C98.7008 37.8534 104.572 38.1683 105.954 41.1064ZM120.112 43.9291C118.241 45.4309 120.981 47.6961 122.751 46.0633C126.482 42.6228 131.82 45.9392 130.552 43.9004C128.815 41.1064 123.112 41.5212 120.112 43.9291ZM116.335 53.4813C114.628 53.6028 112.091 52.9206 111.124 51.4553C111.112 51.4219 114.134 51.181 114.379 50.3236C114.684 49.2621 113.553 48.0068 111.855 47.5201C110.156 47.0334 108.533 47.4993 108.228 48.5609C108 49.3584 109.539 50.5396 110.32 51.078C108.935 51.4902 106.9 51.8395 105.746 50.7998C104.239 49.4418 104.713 47.1837 104.267 47.9159C103.595 49.0188 103.34 51.0184 104.243 51.9923C105.645 53.5026 108.147 53.5023 110.049 53.0292C112.197 55.6298 118.65 56.3836 119.122 51.9464C119.213 51.0947 117.835 53.3747 116.335 53.4813ZM145.083 21.593C141.629 24.8544 138.872 25.7621 136.694 27.473C136.459 27.6577 140.583 28.9481 140.62 28.976C140.422 28.9804 138.731 30.3212 139.598 30.447C139.678 30.4586 139.761 30.4701 139.845 30.4814C140.168 30.5246 140.448 30.6358 140.689 30.8056C140.309 30.8793 138.502 32.2614 139.494 32.3459C140.61 32.4409 143.31 31.2348 143.122 30.9463C142.984 30.7349 142.302 30.2135 142.143 30.0438C142.584 29.5866 143.157 28.6771 142.811 28.1469C142.213 27.2305 143.487 24.221 145.196 23.1705C145.166 23.339 145.723 25.459 146.049 24.5177C146.306 23.7772 146.343 23.0426 146.253 22.2646C146.184 21.6626 145.542 21.1597 145.083 21.593ZM102.066 23.2219C103.063 23.1772 100.511 22.5479 101.565 20.8507C101.712 20.6134 100.171 19.3268 99.976 19.1676C100.423 19.1522 101.806 19.4763 102.256 19.4689C102.883 19.4583 103.174 18.8257 102.927 18.2987C101.717 15.7163 99.9269 9.42745 99.8368 10.4176C99.5912 13.104 99.8424 17.982 99.2268 18.1438C98.7285 18.275 98.5264 18.8514 98.7621 19.286C99.0056 19.7355 100.064 20.5636 100.407 20.889C100.08 21.2085 99.159 21.1985 99.3555 21.772C99.7287 22.8569 101.034 23.2681 102.066 23.2219ZM151.068 48.5365C149.688 48.3973 148.738 48.4712 147.898 48.5817C147.876 49.7015 147.736 50.6459 147.477 51.4311C148.839 51.7273 150.355 52.4482 151.057 53.0618C152.854 54.6152 148.662 53.7217 146.139 53.5416C145.342 54.3756 144.476 55.2409 143.56 56.1011C144.099 56.5955 144.55 57.1092 144.723 57.3489C145.588 58.4957 146.742 62.7958 144.722 60.0232C143.732 58.6634 142.514 58.0465 141.779 57.7013C139.269 59.8585 136.515 61.7915 133.86 62.7773C134.106 64.1098 134.328 66.0074 134.148 68.0211C134.867 68.7852 135.472 69.657 135.915 70.6497C136.573 72.1242 136.827 73.7914 136.598 75.3823C138.176 83.7779 134.447 91.653 125.203 99.4417C117.403 106.014 107.048 111.737 97.677 116.324C81.5187 124.232 77.9743 130.11 77.9743 130.11C77.0961 131.507 75.046 131.464 74.2274 130.032C74.2274 130.032 72.1333 124.443 55.5724 116.054C46.7386 111.58 37.1046 105.798 29.8512 99.2652C23.0286 93.1194 19.4767 86.915 19.104 80.435C4.45191 77.2175 0.655204 70.438 0.0814089 65.259C-0.484681 60.1488 1.96743 55.0925 5.38709 51.6048C3.96416 34.8856 8.93722 25.1552 13.4724 19.8886C17.1972 15.563 21.1911 13.4805 23.2608 12.6177C27.8699 8.74193 33.7933 6.11849 40.9801 4.78752C55.6481 2.07162 68.7339 6.77166 78.8229 18.3793C83.9102 24.2323 87.0017 30.3926 88.5093 33.8852C89.2306 33.2156 89.7707 32.4692 90.2068 31.6729C89.846 31.3701 86.3059 29.3528 87.8788 28.7582C88.6599 28.4629 90.0502 28.9275 91.1518 29.5064C92.0461 26.9994 92.594 24.2452 94.5874 21.8432C93.0044 14.2783 95.5806 0.959729 98.8464 0.0476669C102.268 -0.908316 109.342 12.823 112.314 13.6192C114.776 13.6695 126.523 14.1837 133.707 19.3743C137.497 19.3083 145.137 14.7824 147.3 12.8355C148.474 11.7789 150.044 11.7915 151.118 12.8656C154.221 15.9688 153.595 30.7193 146.548 39.3958C146.819 40.4563 147.752 45.7214 147.813 46.4195C148.689 46.5551 149.576 46.7768 149.924 46.8706C151.2 47.214 153.2 48.7517 151.068 48.5365ZM101.013 64.8526C99.8057 63.9249 98.8608 62.6928 97.8909 61.4209C96.4526 59.5354 94.8568 57.4447 91.9768 55.413C91.9942 61.4528 88.5481 68.4451 88.1965 68.9904C89.0017 70.6445 95.5197 77.3154 98.0075 77.2121C100.496 77.1083 106.094 73.2721 113.822 73.5972C114.302 73.6173 114.781 73.6448 115.26 73.6771C118.233 73.8769 121.186 74.3251 124.019 75.2477C123.158 72.9302 121.489 72.3867 121.647 71.9247C123.108 71.3863 126.853 74.3978 127.149 76.4164C127.633 76.6196 128.616 76.8494 128.618 76.7947C128.697 73.0651 126.143 71.77 126.209 71.3026C128.904 71.0837 130.593 74.4117 130.842 76.7236C131.062 76.5458 131.246 76.3206 131.416 76.045C132.308 74.6018 131.963 68.2954 120.934 66.8245C120.364 66.7487 119.798 66.6842 119.234 66.6262C112.203 65.9013 105.53 66.5882 99.1168 69.7366C96.966 70.7922 97.4373 67.2069 101.013 64.8526ZM15.4437 46.0417C16.8322 44.9822 17.9112 43.7018 18.1013 42.2191C18.3273 40.4527 17.2883 38.7493 16.3408 37.601C16.0806 39.5145 15.9104 41.334 15.7562 42.9842C15.6499 44.1228 15.5549 45.1389 15.4437 46.0417ZM9.20383 54.5138C13.5702 54.3517 26.3288 55.543 27.2915 60.6989C29.6314 57.8823 32.5001 55.367 35.8625 53.1738C38.8447 51.2285 42.214 49.5356 45.9632 48.1206C54.189 45.0166 61.8669 44.0871 64.9729 43.8238C64.4243 42.3909 63.5672 41.0358 62.3706 39.7562C60.7303 38.0024 69.7182 39.5771 69.43 49.0733C69.3011 53.3233 67.3198 57.2171 66.2569 61.2974C65.472 64.3122 63.3939 72.2357 72.6732 74.0704C78.8614 75.294 84.6705 69.2894 86.713 63.5771C88.7803 57.7953 88.5718 51.3289 87.4034 45.3667C84.4404 30.2456 76.8382 22.6183 75.891 21.5337C69.6848 14.4277 62.4589 10.272 54.3192 9.11667C50.4966 8.57395 46.4728 8.69056 42.2569 9.47882C37.2561 10.414 33.1984 12.3519 29.9229 14.736C20.014 21.948 17.267 33.2466 17.267 33.2466C17.4794 33.4169 22.0426 37.4381 21.8024 42.6927C21.7947 42.865 21.776 43.0328 21.7544 43.1994C20.9636 49.29 11.1893 51.5798 9.20383 54.5138ZM65.7029 47.5122C64.8872 47.5764 63.5259 47.7068 61.7855 47.9565C63.3962 49.3532 64.4015 51.1296 64.994 52.9206C65.5082 50.9542 65.8395 49.0689 65.7029 47.5122ZM13.8679 60.2351C13.8679 59.1078 12.3448 58.1939 10.466 58.1939C8.5874 58.1939 7.06404 59.1078 7.06404 60.2351C7.06404 61.3624 8.5874 62.2762 10.466 62.2762C12.3448 62.2762 13.8679 61.3624 13.8679 60.2351ZM21.8253 70.1439C19.7613 71.91 17.5513 73.861 17.1003 75.5544C18.0812 75.8588 19.1204 76.1377 20.2154 76.3933C20.2878 75.8488 21.2769 71.6293 21.8253 70.1439ZM81.5074 111.813C85.8543 106.847 89.9598 102.156 89.2039 94.2896C87.8002 79.6891 79.3522 76.7259 78.9832 76.6041C76.6643 77.5429 74.1773 78.1031 71.7591 77.744C71.6361 77.7258 71.5161 77.7052 71.3954 77.6852C60.5151 75.8606 61.5117 66.4297 62.0731 63.0075C62.3115 61.557 62.8912 59.7283 63.5205 57.7778C62.2725 54.7542 59.8735 50.5627 54.2886 49.4318C52.043 49.9971 49.6351 50.7199 47.1925 51.6461C45.657 52.2284 44.1982 52.8553 42.8096 53.5242C52.6335 54.0325 58.9805 61.5537 57.1889 61.4183C55.1211 61.2622 44.1098 54.0931 32.0442 60.9576C28.9181 64.088 26.6329 67.6913 25.2038 71.7546C35.4705 63.0765 48.9984 66.7209 47.0132 67.8552C44.9386 69.0405 31.145 68.3101 24.1983 82.5756C25.0492 86.2816 27.1659 89.7172 30.0893 92.9196C36.0713 77.7905 53.4269 76.2646 51.6811 78.0664C50.0954 79.7022 37.6057 83.2205 34.5294 97.1437C37.413 99.5727 40.6871 101.86 44.1101 104.027C47.0903 91.8133 60.6959 87.4639 59.6554 89.2377C58.7097 90.8507 49.9577 96.3045 49.3284 107.19C52.1573 108.843 55.0024 110.423 57.7363 111.941C58.1845 112.191 58.6278 112.437 59.0662 112.68C61.2394 100.958 74.2071 96.6012 73.2339 98.2391C72.3465 99.7324 63.9792 104.99 63.85 115.373C68.3351 117.947 72.0355 120.282 74.5243 122.605C74.5836 122.399 74.6507 122.196 74.7182 121.995C76.0269 118.083 78.7967 114.91 81.5074 111.813ZM132.113 80.2544C131.346 80.6343 130.468 80.9266 129.589 80.9862C128.851 81.0355 128.114 80.9215 127.441 80.5511C118.744 75.7609 107.211 78.229 104.154 79.3807C102.281 80.0865 100.272 81.1395 98.2153 81.0481C92.9276 80.8139 91.8615 82.0354 92.9191 93.9328C93.8918 104.87 86.977 111.126 82.4059 116.201C80.5325 118.28 79.052 120.162 78.6708 122.085C82.4696 119.021 88.4593 115.89 95.5921 112.162C111.445 103.876 130.776 93.7697 132.113 80.2544ZM147.519 25.0712C151.402 9.04321 136.031 27.1013 132.068 24.3844C131.797 24.199 131.527 24.0217 131.255 23.8473C129.499 26.0685 127.547 29.6313 125.846 30.2775C123.739 31.0786 124.504 25.335 127.564 21.7918C126.042 21.0639 124.541 20.4826 123.102 20.0185C121.888 22.5677 120.707 26.0917 119.257 26.9996C117.458 28.1267 117.05 22.9877 118.932 18.9315C117.406 18.6249 116.035 18.4446 114.886 18.3408C113.663 20.8456 112.5 25.0442 111.069 26.0262C109.463 27.128 109.148 21.9587 110.874 17.9471C109.462 16.9764 104.696 13.5118 102.201 9.35579C97.4368 1.42282 96.7613 17.9987 98.3699 23.9729C98.3699 23.9729 95.5711 26.6167 94.2391 30.6402C93.149 33.9337 91.5561 36.8682 89.8056 38.5377C90.9895 42.3295 92.6687 46.1925 94.9459 49.5651C98.0214 54.1203 102.187 57.7793 107.71 59.146C110.044 59.7237 103.892 61.8879 102.594 61.2748C103.466 62.174 105.446 63.4343 105.446 63.4343C106.936 63.0575 112.56 62.3985 113.846 62.3982C113.779 61.414 114.372 60.4256 115.632 60.5199C117.401 60.6519 121.043 60.8176 125.261 60.1834C131.059 59.3117 137.948 56.9264 142.58 50.8404C144.531 48.277 141.236 38.8901 141.236 38.8901C141.236 38.8901 145.018 35.3946 147.519 25.0712Z" fill="#301410"/>
<path d="M177.203 38.2578C177.203 32.5391 179.242 27.6406 183.32 23.5625C187.398 19.4844 192.297 17.4453 198.016 17.4453H234.789C240.461 17.4453 245.289 19.4844 249.273 23.5625C253.164 27.5469 255.109 32.4453 255.109 38.2578V58.8594C255.109 64.6719 253.094 69.5938 249.062 73.625C245.031 77.6562 240.133 79.6719 234.367 79.6719H221.711V106.109C221.711 109.672 220.047 112.203 216.719 113.703C215.688 114.125 214.586 114.336 213.414 114.336C212.289 114.336 211.211 114.102 210.18 113.633C209.148 113.211 208.258 112.625 207.508 111.875C205.867 110.328 205.047 108.406 205.047 106.109V45.7812C205.047 41.3281 207.062 37.2266 211.094 33.4766C211.469 33.1016 211.656 32.7031 211.656 32.2812C211.656 31.8125 211.492 31.3438 211.164 30.875C210.883 30.3594 210.297 30.1016 209.406 30.1016H201.461C199.398 30.1016 197.805 30.7344 196.68 32C194.805 34.1094 193.867 36.2656 193.867 38.4688V42.4766C193.867 46.1328 192.156 48.6641 188.734 50.0703C187.703 50.4922 186.602 50.7031 185.43 50.7031C184.305 50.7031 183.227 50.4922 182.195 50.0703C181.211 49.6484 180.344 49.0625 179.594 48.3125C178 46.7188 177.203 44.7734 177.203 42.4766V38.2578ZM221.711 67.1562H230.289C232.586 67.1562 234.297 66.5469 235.422 65.3281C237.484 63.2188 238.516 61.0156 238.516 58.7188V38.4688C238.516 36.2188 237.93 34.4844 236.758 33.2656C234.789 31.1562 232.914 30.1016 231.133 30.1016C229.352 30.1016 227.922 30.3359 226.844 30.8047C225.812 31.2266 224.922 31.8125 224.172 32.5625C222.531 34.1094 221.711 36.0547 221.711 38.3984V67.1562ZM281.389 44.4453C281.389 41.6328 282.702 39.6641 285.327 38.5391C286.077 38.2109 286.897 38.0469 287.788 38.0469H304.382C310.1 38.0469 314.999 40.0859 319.077 44.1641C323.155 48.2422 325.194 53.1406 325.194 58.8594V106.18C325.194 109.742 323.507 112.25 320.132 113.703C319.1 114.172 317.975 114.406 316.757 114.406C315.538 114.406 314.483 114.195 313.592 113.773C312.749 113.398 312.022 112.953 311.413 112.438C310.897 111.969 310.382 111.312 309.866 110.469C309.35 109.578 308.952 108.922 308.671 108.5C308.389 108.078 307.944 107.867 307.335 107.867C306.725 107.867 306.233 108.078 305.858 108.5L304.733 109.695C301.592 112.836 297.913 114.406 293.694 114.406C288.678 114.406 284.342 112.344 280.686 108.219C277.03 104.141 275.202 99.2656 275.202 93.5938V83.8906C275.202 78.1719 277.241 73.2734 281.319 69.1953C285.35 65.1641 290.249 63.1484 296.014 63.1484H308.53V59.0703C308.53 56.7266 307.944 54.9688 306.772 53.7969C304.71 51.7344 302.53 50.7031 300.233 50.7031H287.788C286.053 50.7031 284.717 50.2578 283.78 49.3672C282.186 47.8672 281.389 46.2266 281.389 44.4453ZM291.866 93.4531C291.866 95.8438 292.452 97.6016 293.624 98.7266C295.686 100.695 297.585 101.68 299.319 101.68C301.053 101.68 302.413 101.516 303.397 101.188C304.428 100.859 305.319 100.391 306.069 99.7812C307.71 98.4688 308.53 96.7344 308.53 94.5781V75.7344H300.233C297.842 75.7344 296.061 76.3203 294.889 77.4922C292.874 79.5078 291.866 81.6875 291.866 84.0312V93.4531ZM414.474 45.0781C414.474 42.7812 415.06 41 416.232 39.7344C418.247 37.6719 420.474 36.6406 422.912 36.6406C425.255 36.6406 426.99 37.25 428.115 38.4688C430.13 40.5312 431.138 42.7344 431.138 45.0781V93.8047C431.138 100.039 428.982 105.055 424.669 108.852C420.404 112.555 414.943 114.406 408.287 114.406C400.693 114.406 394.974 112.062 391.13 107.375C389.912 106.344 388.833 106.344 387.896 107.375C383.958 112.062 378.24 114.406 370.74 114.406C364.13 114.406 358.693 112.531 354.427 108.781C350.021 104.938 347.818 99.875 347.818 93.5938V45.0781C347.818 42.7812 348.404 41 349.576 39.7344C351.591 37.6719 353.818 36.6406 356.255 36.6406C358.599 36.6406 360.333 37.25 361.458 38.4688C363.474 40.5312 364.482 42.7344 364.482 45.0781V94.2266C364.482 96.6172 365.279 98.4688 366.872 99.7812C368.466 101.047 370.412 101.68 372.708 101.68C375.052 101.68 377.044 101.07 378.685 99.8516C380.326 98.5859 381.146 96.7109 381.146 94.2266V45.1484C381.146 42.8516 381.732 41.0703 382.904 39.8047C384.919 37.7422 387.146 36.7109 389.583 36.7109C391.927 36.7109 393.662 37.2969 394.787 38.4688C396.802 40.5781 397.81 42.8047 397.81 45.1484V94.2266C397.81 96.7109 398.607 98.5859 400.201 99.8516C401.841 101.07 403.833 101.68 406.177 101.68C408.521 101.68 410.49 101.047 412.083 99.7812C413.677 98.4688 414.474 96.6172 414.474 94.2266V45.0781Z" fill="#6A63DD"/>
</svg>
